REM DIRINDEX 1\2,1\3,1\4,1\5
REM DIRNAME folder01,folder02,folder03,folder04,folder05
TITLE ""
FILE "115.mp3" MP3
  TRACK 01 AUDIO
    TITLE "0:"
    INDEX 01 00:00:00
  TRACK 02 AUDIO
    TITLE "2:cjc046_2685"
    INDEX 01 00:00:15
  TRACK 03 AUDIO
    TITLE "0:"
    INDEX 01 00:01:13
  TRACK 04 AUDIO
    TITLE "3:cjc046_2686"
    INDEX 01 00:01:38
  TRACK 05 AUDIO
    TITLE "0:"
    INDEX 01 00:02:34
  TRACK 06 AUDIO
    TITLE "4:cjc046_2687"
    INDEX 01 00:02:47
  TRACK 07 AUDIO
    TITLE "0:"
    INDEX 01 00:03:45
  TRACK 08 AUDIO
    TITLE "2:cjc046_2688"
    INDEX 01 00:04:50
  TRACK 09 AUDIO
    TITLE "0:"
    INDEX 01 00:05:61
  TRACK 10 AUDIO
    TITLE "3:cjc046_2689"
    INDEX 01 00:06:08
  TRACK 11 AUDIO
    TITLE "0:"
    INDEX 01 00:07:39
  TRACK 12 AUDIO
    TITLE "4:cjc046_2690"
    INDEX 01 00:07:49
  TRACK 13 AUDIO
    TITLE "0:"
    INDEX 01 00:08:60
  TRACK 14 AUDIO
    TITLE "2:cjc046_2691"
    INDEX 01 00:09:69
  TRACK 15 AUDIO
    TITLE "0:"
    INDEX 01 00:10:72
  TRACK 16 AUDIO
    TITLE "3:cjc046_2692"
    INDEX 01 00:11:25
  TRACK 17 AUDIO
    TITLE "0:"
    INDEX 01 00:12:46
  TRACK 18 AUDIO
    TITLE "4:cjc046_2693"
    INDEX 01 00:12:60
  TRACK 19 AUDIO
    TITLE "0:"
    INDEX 01 00:13:63
  TRACK 20 AUDIO
    TITLE "2:cjc046_2694"
    INDEX 01 00:14:72
  TRACK 21 AUDIO
    TITLE "0:"
    INDEX 01 00:15:72
  TRACK 22 AUDIO
    TITLE "3:cjc046_2695"
    INDEX 01 00:16:22
  TRACK 23 AUDIO
    TITLE "0:"
    INDEX 01 00:17:12
  TRACK 24 AUDIO
    TITLE "4:cjc046_2696"
    INDEX 01 00:17:23
  TRACK 25 AUDIO
    TITLE "0:"
    INDEX 01 00:18:21
  TRACK 26 AUDIO
    TITLE "2:cjc046_2697"
    INDEX 01 00:19:32
  TRACK 27 AUDIO
    TITLE "0:"
    INDEX 01 00:20:30
  TRACK 28 AUDIO
    TITLE "3:cjc046_2698"
    INDEX 01 00:20:55
  TRACK 29 AUDIO
    TITLE "0:"
    INDEX 01 00:22:03
  TRACK 30 AUDIO
    TITLE "4:cjc046_2699"
    INDEX 01 00:22:21
  TRACK 31 AUDIO
    TITLE "0:"
    INDEX 01 00:23:22
  TRACK 32 AUDIO
    TITLE "2:cjc046_2700"
    INDEX 01 00:24:27
  TRACK 33 AUDIO
    TITLE "0:"
    INDEX 01 00:25:39
  TRACK 34 AUDIO
    TITLE "3:cjc046_2701"
    INDEX 01 00:25:64
  TRACK 35 AUDIO
    TITLE "0:"
    INDEX 01 00:27:00
  TRACK 36 AUDIO
    TITLE "4:cjc046_2702"
    INDEX 01 00:27:14
  TRACK 37 AUDIO
    TITLE "0:"
    INDEX 01 00:28:27
  TRACK 38 AUDIO
    TITLE "2:cjc046_2703"
    INDEX 01 00:29:31
  TRACK 39 AUDIO
    TITLE "0:"
    INDEX 01 00:30:34
  TRACK 40 AUDIO
    TITLE "3:cjc046_2704"
    INDEX 01 00:30:57
  TRACK 41 AUDIO
    TITLE "0:"
    INDEX 01 00:31:39
  TRACK 42 AUDIO
    TITLE "4:cjc046_2705"
    INDEX 01 00:31:49
  TRACK 43 AUDIO
    TITLE "0:"
    INDEX 01 00:32:52
  TRACK 44 AUDIO
    TITLE "2:cjc046_2706"
    INDEX 01 00:33:60
  TRACK 45 AUDIO
    TITLE "0:"
    INDEX 01 00:34:69
  TRACK 46 AUDIO
    TITLE "3:cjc046_2707"
    INDEX 01 00:35:21
  TRACK 47 AUDIO
    TITLE "0:"
    INDEX 01 00:36:54
  TRACK 48 AUDIO
    TITLE "4:cjc046_2708"
    INDEX 01 00:36:66
  TRACK 49 AUDIO
    TITLE "0:"
    INDEX 01 00:38:00
  TRACK 50 AUDIO
    TITLE "2:cjc046_2709"
    INDEX 01 00:39:07
  TRACK 51 AUDIO
    TITLE "0:"
    INDEX 01 00:40:15
  TRACK 52 AUDIO
    TITLE "3:cjc046_2710"
    INDEX 01 00:40:44
  TRACK 53 AUDIO
    TITLE "0:"
    INDEX 01 00:42:06
  TRACK 54 AUDIO
    TITLE "4:cjc046_2711"
    INDEX 01 00:42:19
  TRACK 55 AUDIO
    TITLE "0:"
    INDEX 01 00:43:31
  TRACK 56 AUDIO
    TITLE "2:cjc046_2712"
    INDEX 01 00:44:38
  TRACK 57 AUDIO
    TITLE "0:"
    INDEX 01 00:45:45
  TRACK 58 AUDIO
    TITLE "3:cjc046_2713"
    INDEX 01 00:45:73
  TRACK 59 AUDIO
    TITLE "0:"
    INDEX 01 00:46:51
  TRACK 60 AUDIO
    TITLE "4:cjc046_2714"
    INDEX 01 00:46:64
  TRACK 61 AUDIO
    TITLE "0:"
    INDEX 01 00:47:70
  TRACK 62 AUDIO
    TITLE "2:cjc046_2715"
    INDEX 01 00:49:06
  TRACK 63 AUDIO
    TITLE "0:"
    INDEX 01 00:50:07
  TRACK 64 AUDIO
    TITLE "3:cjc046_2716"
    INDEX 01 00:50:35
  TRACK 65 AUDIO
    TITLE "0:"
    INDEX 01 00:51:54
  TRACK 66 AUDIO
    TITLE "4:cjc046_2717"
    INDEX 01 00:51:62
  TRACK 67 AUDIO
    TITLE "0:"
    INDEX 01 00:52:63
  TRACK 68 AUDIO
    TITLE "2:cjc046_2718"
    INDEX 01 00:53:72
  TRACK 69 AUDIO
    TITLE "0:"
    INDEX 01 00:55:06
  TRACK 70 AUDIO
    TITLE "3:cjc046_2719"
    INDEX 01 00:55:34
  TRACK 71 AUDIO
    TITLE "0:"
    INDEX 01 00:56:61
  TRACK 72 AUDIO
    TITLE "4:cjc046_2720"
    INDEX 01 00:56:74
  TRACK 73 AUDIO
    TITLE "0:"
    INDEX 01 00:58:09
  TRACK 74 AUDIO
    TITLE "2:cjc046_2721"
    INDEX 01 00:59:20
  TRACK 75 AUDIO
    TITLE "0:"
    INDEX 01 01:00:31
  TRACK 76 AUDIO
    TITLE "3:cjc046_2722"
    INDEX 01 01:00:59
  TRACK 77 AUDIO
    TITLE "0:"
    INDEX 01 01:01:60
  TRACK 78 AUDIO
    TITLE "4:cjc046_2723"
    INDEX 01 01:01:68
  TRACK 79 AUDIO
    TITLE "0:"
    INDEX 01 01:03:04
  TRACK 80 AUDIO
    TITLE "2:cjc046_2724"
    INDEX 01 01:04:09
  TRACK 81 AUDIO
    TITLE "0:"
    INDEX 01 01:05:24
  TRACK 82 AUDIO
    TITLE "3:cjc046_2725"
    INDEX 01 01:05:52
  TRACK 83 AUDIO
    TITLE "0:"
    INDEX 01 01:06:45
  TRACK 84 AUDIO
    TITLE "4:cjc046_2726"
    INDEX 01 01:06:57
  TRACK 85 AUDIO
    TITLE "0:"
    INDEX 01 01:07:72
  TRACK 86 AUDIO
    TITLE "2:cjc046_2727"
    INDEX 01 01:09:09
  TRACK 87 AUDIO
    TITLE "0:"
    INDEX 01 01:10:18
  TRACK 88 AUDIO
    TITLE "3:cjc046_2728"
    INDEX 01 01:10:39
  TRACK 89 AUDIO
    TITLE "0:"
    INDEX 01 01:11:51
  TRACK 90 AUDIO
    TITLE "4:cjc046_2729"
    INDEX 01 01:11:62
  TRACK 91 AUDIO
    TITLE "0:"
    INDEX 01 01:12:70
